<svg width="800" viewBox="0 0 800 940" xmlns="http://www.w3.org/2000/svg" font-family="-apple-system, BlinkMacSystemFont, 'Segoe UI', Helvetica, Arial, sans-serif">

  <rect width="800" height="940" fill="#ffffff"/>

  <defs>
    <marker id="arr" viewBox="0 0 10 10" refX="8" refY="5" markerWidth="6" markerHeight="6" orient="auto-start-reverse">
      <path d="M2 1L8 5L2 9" fill="none" stroke="#5f5e5a" stroke-width="1.5" stroke-linecap="round" stroke-linejoin="round"/>
    </marker>
    <marker id="arr-teal" viewBox="0 0 10 10" refX="8" refY="5" markerWidth="6" markerHeight="6" orient="auto-start-reverse">
      <path d="M2 1L8 5L2 9" fill="none" stroke="#0f6e56" stroke-width="1.5" stroke-linecap="round" stroke-linejoin="round"/>
    </marker>
    <marker id="arr-blue" viewBox="0 0 10 10" refX="8" refY="5" markerWidth="6" markerHeight="6" orient="auto-start-reverse">
      <path d="M2 1L8 5L2 9" fill="none" stroke="#185fa5" stroke-width="1.5" stroke-linecap="round" stroke-linejoin="round"/>
    </marker>
  </defs>

  <!-- CONFIG  y=20..60 -->
  <rect x="280" y="20" width="240" height="40" rx="8" fill="#f1efe8" stroke="#5f5e5a" stroke-width="0.75"/>
  <text x="400" y="35" text-anchor="middle" font-size="13" font-weight="600" fill="#444441">src/config.py</text>
  <text x="400" y="51" text-anchor="middle" font-size="11" fill="#5f5e5a">Settings(BaseSettings), reads .env</text>

  <!-- config dashed lines -->
  <line x1="310" y1="60" x2="195" y2="90" stroke="#b4b2a9" stroke-width="0.75" stroke-dasharray="4 3" marker-end="url(#arr)"/>
  <path d="M340 60 L380 60 L380 272 L195 272 L195 280" fill="none" stroke="#b4b2a9" stroke-width="0.75" stroke-dasharray="4 3" marker-end="url(#arr)"/>
  <path d="M350 60 L390 60 L390 482 L350 482" fill="none" stroke="#b4b2a9" stroke-width="0.75" stroke-dasharray="4 3" marker-end="url(#arr)"/>
  <line x1="450" y1="60" x2="595" y2="280" stroke="#b4b2a9" stroke-width="0.75" stroke-dasharray="4 3" marker-end="url(#arr)"/>
  <line x1="465" y1="60" x2="595" y2="490" stroke="#b4b2a9" stroke-width="0.75" stroke-dasharray="4 3" marker-end="url(#arr)"/>

  <!-- INGESTION  col A  y=90..260 -->
  <text x="55" y="83" font-size="10" fill="#888780" font-weight="500" letter-spacing="0.5">INGESTION</text>
  <rect x="40" y="90" width="310" height="170" rx="10" fill="#e1f5ee" stroke="#0f6e56" stroke-width="0.75"/>
  <text x="195" y="108" text-anchor="middle" font-size="12" font-weight="600" fill="#085041">src/ingestion/</text>

  <rect x="54" y="118" width="132" height="44" rx="6" fill="#9fe1cb" stroke="#0f6e56" stroke-width="0.75"/>
  <text x="120" y="135" text-anchor="middle" font-size="12" font-weight="600" fill="#085041">pdf_parser.py</text>
  <text x="120" y="151" text-anchor="middle" font-size="10" fill="#0f6e56">PyMuPDF extraction</text>

  <rect x="198" y="118" width="138" height="44" rx="6" fill="#9fe1cb" stroke="#0f6e56" stroke-width="0.75"/>
  <text x="267" y="135" text-anchor="middle" font-size="12" font-weight="600" fill="#085041">chunker.py</text>
  <text x="267" y="151" text-anchor="middle" font-size="10" fill="#0f6e56">tiktoken 512/50</text>

  <rect x="54" y="174" width="144" height="44" rx="6" fill="#9fe1cb" stroke="#0f6e56" stroke-width="0.75"/>
  <text x="126" y="191" text-anchor="middle" font-size="12" font-weight="600" fill="#085041">noise_filter.py</text>
  <text x="126" y="207" text-anchor="middle" font-size="10" fill="#0f6e56">drops refs/affiliations</text>

  <rect x="210" y="174" width="126" height="44" rx="6" fill="#9fe1cb" stroke="#0f6e56" stroke-width="0.75"/>
  <text x="273" y="191" text-anchor="middle" font-size="12" font-weight="600" fill="#085041">embedder.py</text>
  <text x="273" y="207" text-anchor="middle" font-size="10" fill="#0f6e56">all-mpnet-base-v2</text>

  <line x1="186" y1="140" x2="196" y2="140" stroke="#0f6e56" stroke-width="1" marker-end="url(#arr-teal)"/>
  <line x1="126" y1="162" x2="126" y2="172" stroke="#0f6e56" stroke-width="1" marker-end="url(#arr-teal)"/>
  <line x1="267" y1="162" x2="267" y2="172" stroke="#0f6e56" stroke-width="1" marker-end="url(#arr-teal)"/>

  <!-- UTILS  col B  y=90..134 -->
  <rect x="450" y="90" width="160" height="44" rx="8" fill="#f1efe8" stroke="#5f5e5a" stroke-width="0.75"/>
  <text x="530" y="107" text-anchor="middle" font-size="12" font-weight="600" fill="#444441">src/utils/</text>
  <text x="530" y="123" text-anchor="middle" font-size="11" fill="#5f5e5a">logging.py</text>

  <!-- INGESTION bottom → RETRIEVAL top: straight 20px gap -->
  <line x1="195" y1="260" x2="195" y2="280" stroke="#5f5e5a" stroke-width="1" marker-end="url(#arr)"/>

  <!-- RETRIEVAL  col A  y=280..420 -->
  <text x="55" y="273" font-size="10" fill="#888780" font-weight="500" letter-spacing="0.5">RETRIEVAL</text>
  <rect x="40" y="280" width="310" height="140" rx="10" fill="#eeedfe" stroke="#534ab7" stroke-width="0.75"/>
  <text x="195" y="298" text-anchor="middle" font-size="12" font-weight="600" fill="#3c3489">src/retrieval/</text>

  <rect x="54" y="308" width="132" height="44" rx="6" fill="#afa9ec" stroke="#534ab7" stroke-width="0.75"/>
  <text x="120" y="325" text-anchor="middle" font-size="12" font-weight="600" fill="#3c3489">vector_store.py</text>
  <text x="120" y="341" text-anchor="middle" font-size="10" fill="#534ab7">FAISS IndexFlatIP</text>

  <rect x="198" y="308" width="138" height="44" rx="6" fill="#afa9ec" stroke="#534ab7" stroke-width="0.75"/>
  <text x="267" y="319" text-anchor="middle" font-size="12" font-weight="600" fill="#3c3489">query_</text>
  <text x="267" y="333" text-anchor="middle" font-size="12" font-weight="600" fill="#3c3489">decomposer.py</text>
  <text x="267" y="347" text-anchor="middle" font-size="10" fill="#534ab7">sub-question split</text>

  <rect x="54" y="364" width="282" height="24" rx="5" fill="#afa9ec" stroke="#534ab7" stroke-width="0.75"/>
  <text x="195" y="376" text-anchor="middle" font-size="10" fill="#3c3489">FAISS index + JSON sidecar (data/)</text>

  <!-- RETRIEVAL right → GENERATION left: straight across 80px gap at y=350 -->
  <line x1="350" y1="350" x2="430" y2="350" stroke="#5f5e5a" stroke-width="1" marker-end="url(#arr)"/>

  <!-- GENERATION  col B  y=280..470 -->
  <text x="442" y="273" font-size="10" fill="#888780" font-weight="500" letter-spacing="0.5">GENERATION</text>
  <rect x="430" y="280" width="330" height="190" rx="10" fill="#e6f1fb" stroke="#185fa5" stroke-width="0.75"/>
  <text x="595" y="298" text-anchor="middle" font-size="12" font-weight="600" fill="#0c447c">src/generation/</text>

  <rect x="444" y="308" width="132" height="44" rx="6" fill="#85b7eb" stroke="#185fa5" stroke-width="0.75"/>
  <text x="510" y="325" text-anchor="middle" font-size="12" font-weight="600" fill="#0c447c">generator.py</text>
  <text x="510" y="341" text-anchor="middle" font-size="10" fill="#185fa5">backend selector</text>

  <rect x="444" y="364" width="132" height="44" rx="6" fill="#85b7eb" stroke="#185fa5" stroke-width="0.75"/>
  <text x="510" y="381" text-anchor="middle" font-size="12" font-weight="600" fill="#0c447c">claude_client.py</text>
  <text x="510" y="397" text-anchor="middle" font-size="10" fill="#185fa5">Anthropic SDK</text>

  <rect x="590" y="364" width="156" height="44" rx="6" fill="#85b7eb" stroke="#185fa5" stroke-width="0.75"/>
  <text x="668" y="381" text-anchor="middle" font-size="12" font-weight="600" fill="#0c447c">ollama_client.py</text>
  <text x="668" y="397" text-anchor="middle" font-size="10" fill="#185fa5">local Ollama HTTP</text>

  <line x1="510" y1="352" x2="510" y2="362" stroke="#185fa5" stroke-width="1" marker-end="url(#arr-blue)"/>
  <line x1="576" y1="330" x2="668" y2="362" stroke="#185fa5" stroke-width="1" marker-end="url(#arr-blue)"/>
  <text x="510" y="422" text-anchor="middle" font-size="10" fill="#888780">→ api.anthropic.com</text>
  <text x="668" y="422" text-anchor="middle" font-size="10" fill="#888780">→ localhost:11434</text>

  <!-- EVALUATION  col A  y=490..720 -->
  <text x="55" y="483" font-size="10" fill="#888780" font-weight="500" letter-spacing="0.5">EVALUATION</text>
  <rect x="40" y="490" width="310" height="230" rx="10" fill="#faeeda" stroke="#854f0b" stroke-width="0.75"/>
  <text x="195" y="508" text-anchor="middle" font-size="12" font-weight="600" fill="#633806">src/evaluation/</text>

  <rect x="54" y="518" width="132" height="56" rx="6" fill="#fac775" stroke="#854f0b" stroke-width="0.75"/>
  <text x="120" y="535" text-anchor="middle" font-size="12" font-weight="600" fill="#633806">question_</text>
  <text x="120" y="549" text-anchor="middle" font-size="12" font-weight="600" fill="#633806">generator.py</text>
  <text x="120" y="564" text-anchor="middle" font-size="10" fill="#854f0b">Claude Q gen</text>

  <rect x="198" y="518" width="138" height="56" rx="6" fill="#fac775" stroke="#854f0b" stroke-width="0.75"/>
  <text x="267" y="535" text-anchor="middle" font-size="12" font-weight="600" fill="#633806">retrieval_</text>
  <text x="267" y="549" text-anchor="middle" font-size="12" font-weight="600" fill="#633806">metrics.py</text>
  <text x="267" y="564" text-anchor="middle" font-size="10" fill="#854f0b">Precision/Recall/MRR</text>

  <rect x="54" y="586" width="282" height="56" rx="6" fill="#fac775" stroke="#854f0b" stroke-width="0.75"/>
  <text x="195" y="603" text-anchor="middle" font-size="12" font-weight="600" fill="#633806">ragas_evaluator.py</text>
  <text x="195" y="618" text-anchor="middle" font-size="10" fill="#854f0b">faithfulness scoring</text>
  <text x="195" y="632" text-anchor="middle" font-size="10" fill="#854f0b">(Claude-as-judge fallback)</text>

  <rect x="54" y="654" width="282" height="22" rx="5" fill="#fac775" stroke="#854f0b" stroke-width="0.75"/>
  <text x="195" y="665" text-anchor="middle" font-size="10" fill="#633806">data/eval/*.jsonl  |  data/query_logs/*.jsonl</text>

  <!-- SCRIPTS  col B  y=490..720 -->
  <text x="442" y="483" font-size="10" fill="#888780" font-weight="500" letter-spacing="0.5">SCRIPTS / ENTRY POINTS</text>
  <rect x="430" y="490" width="330" height="230" rx="10" fill="#faece7" stroke="#993c1d" stroke-width="0.75"/>
  <text x="595" y="508" text-anchor="middle" font-size="12" font-weight="600" fill="#712b13">scripts/</text>

  <rect x="444" y="518" width="140" height="56" rx="6" fill="#f0997b" stroke="#993c1d" stroke-width="0.75"/>
  <text x="514" y="535" text-anchor="middle" font-size="12" font-weight="600" fill="#712b13">ingest_papers.py</text>
  <text x="514" y="550" text-anchor="middle" font-size="10" fill="#993c1d">bulk ingestion</text>
  <text x="514" y="564" text-anchor="middle" font-size="10" fill="#993c1d">--resume flag</text>

  <rect x="598" y="518" width="148" height="56" rx="6" fill="#f0997b" stroke="#993c1d" stroke-width="0.75"/>
  <text x="672" y="535" text-anchor="middle" font-size="12" font-weight="600" fill="#712b13">query_</text>
  <text x="672" y="549" text-anchor="middle" font-size="12" font-weight="600" fill="#712b13">assistant.py</text>
  <text x="672" y="564" text-anchor="middle" font-size="10" fill="#993c1d">REPL + single-shot</text>

  <rect x="444" y="586" width="140" height="44" rx="6" fill="#f0997b" stroke="#993c1d" stroke-width="0.75"/>
  <text x="514" y="603" text-anchor="middle" font-size="12" font-weight="600" fill="#712b13">run_evaluation.py</text>
  <text x="514" y="619" text-anchor="middle" font-size="10" fill="#993c1d">eval orchestrator</text>

  <rect x="598" y="586" width="148" height="44" rx="6" fill="#f0997b" stroke="#993c1d" stroke-width="0.75"/>
  <text x="672" y="597" text-anchor="middle" font-size="12" font-weight="600" fill="#712b13">convert_</text>
  <text x="672" y="611" text-anchor="middle" font-size="12" font-weight="600" fill="#712b13">querylog.py</text>
  <text x="672" y="625" text-anchor="middle" font-size="10" fill="#993c1d">log → eval format</text>

  <rect x="444" y="642" width="140" height="36" rx="5" fill="#f0997b" stroke="#993c1d" stroke-width="0.75"/>
  <text x="514" y="655" text-anchor="middle" font-size="10" fill="#712b13">test_pdf_parser.py</text>
  <text x="514" y="669" text-anchor="middle" font-size="10" fill="#712b13">test_chunker.py …</text>

  <rect x="598" y="642" width="148" height="36" rx="5" fill="#f0997b" stroke="#993c1d" stroke-width="0.75"/>
  <text x="672" y="655" text-anchor="middle" font-size="10" fill="#712b13">test_claude_</text>
  <text x="672" y="669" text-anchor="middle" font-size="10" fill="#712b13">generation.py</text>

  <!-- ════ INTER-LAYER ARROWS ════
       All routes use the 80px gap corridor x=350..430.
       Offsets within corridor to avoid line overlap:
         x=375  scripts → retrieval
         x=383  scripts → ingestion
         x=393  eval → generation (dashed reference)

       scripts → generation: straight up col B (gap y=470..490 is clear)
       run_evaluation → eval: straight horizontal y=608 (entirely in gap x=350..444)
  -->

  <!-- scripts → generation: 20px clear gap between gen bottom(470) and scripts top(490) -->
  <line x1="672" y1="490" x2="672" y2="472" stroke="#5f5e5a" stroke-width="1" marker-end="url(#arr)"/>

  <!-- run_evaluation → eval: straight horizontal, clear gap between col B(x=444) and col A(x=350) -->
  <line x1="444" y1="608" x2="352" y2="608" stroke="#5f5e5a" stroke-width="1" marker-end="url(#arr)"/>

  <!-- scripts → ingestion:
       Start at scripts left edge (430, 546) — midpoint of ingest_papers box
       Go left to corridor x=383 (inside gap, clear of both col boxes)
       Go up to y=82 (8px above ingestion top at y=90)
       Go right to x=195 (ingestion centre)
       Go down into ingestion top at y=90
  -->
  <path d="M430 546 L383 546 L383 82 L195 82 L195 90" fill="none" stroke="#5f5e5a" stroke-width="1" marker-end="url(#arr)"/>

  <!-- scripts → retrieval:
       Start at scripts left edge (430, 640) — midpoint of run_evaluation box
       Go left to corridor x=375 (inside gap, different offset from ingestion line)
       Go up to y=273 (7px above retrieval top at y=280, below ingestion bottom at y=260)
       Go right to x=195 (retrieval centre)
       Go down into retrieval top at y=280
       KEY CHECK: x=375 corridor — left of scripts(430) ✓, left of generation(430) ✓,
                  right of retrieval(350) ✓, right of evaluation(350) ✓
                  y=273 segment runs from x=375 to x=195, fully in col A region, below
                  ingestion bottom (260) and above retrieval top (280) — 13px clear ✓
  -->
  <path d="M430 640 L375 640 L375 273 L195 273 L195 280" fill="none" stroke="#5f5e5a" stroke-width="1" marker-end="url(#arr)"/>

  <!-- eval → generation (dashed reference):
       Exit eval right edge at (350, 560)
       Go right to corridor x=393
       Go up to y=350 (midpoint of generation)
       Enter generation left at (430, 350)
  -->
  <path d="M350 560 L393 560 L393 350 L430 350" fill="none" stroke="#b4b2a9" stroke-width="0.75" stroke-dasharray="4 3" marker-end="url(#arr)"/>

  <!-- CONFIG / ENV BAR -->
  <text x="55" y="744" font-size="10" fill="#888780" font-weight="500" letter-spacing="0.5">CONFIG / ENV</text>
  <rect x="40" y="752" width="720" height="44" rx="8" fill="#f1efe8" stroke="#5f5e5a" stroke-width="0.75"/>
  <text x="220" y="769" text-anchor="middle" font-size="12" font-weight="600" fill="#444441">.env / .env.example</text>
  <text x="220" y="785" text-anchor="middle" font-size="11" fill="#5f5e5a">23 env vars, source of truth</text>
  <text x="580" y="769" text-anchor="middle" font-size="12" font-weight="600" fill="#444441">pixi.toml</text>
  <text x="580" y="785" text-anchor="middle" font-size="11" fill="#5f5e5a">tasks, deps, features</text>
  <line x1="400" y1="752" x2="400" y2="62" stroke="#b4b2a9" stroke-width="0.75" stroke-dasharray="4 3" marker-end="url(#arr)"/>

  <!-- DOCS BAR -->
  <text x="55" y="824" font-size="10" fill="#888780" font-weight="500" letter-spacing="0.5">DOCUMENTATION</text>
  <rect x="40" y="832" width="720" height="44" rx="8" fill="#f1efe8" stroke="#5f5e5a" stroke-width="0.75"/>
  <text x="210" y="849" text-anchor="middle" font-size="12" font-weight="600" fill="#444441">docs/</text>
  <text x="210" y="865" text-anchor="middle" font-size="11" fill="#5f5e5a">Sphinx + Shibuya, conf.py, usage.rst, modules/</text>
  <text x="600" y="849" text-anchor="middle" font-size="12" font-weight="600" fill="#444441">README.md</text>
  <text x="600" y="865" text-anchor="middle" font-size="11" fill="#5f5e5a">GitHub portfolio docs</text>

  <!-- LEGEND -->
  <rect x="40" y="898" width="10" height="10" rx="2" fill="#1D9E75"/>
  <text x="56" y="907" font-size="10" fill="#444441">ingestion</text>
  <rect x="125" y="898" width="10" height="10" rx="2" fill="#7F77DD"/>
  <text x="141" y="907" font-size="10" fill="#444441">retrieval</text>
  <rect x="210" y="898" width="10" height="10" rx="2" fill="#378ADD"/>
  <text x="226" y="907" font-size="10" fill="#444441">generation</text>
  <rect x="315" y="898" width="10" height="10" rx="2" fill="#BA7517"/>
  <text x="331" y="907" font-size="10" fill="#444441">evaluation</text>
  <rect x="415" y="898" width="10" height="10" rx="2" fill="#D85A30"/>
  <text x="431" y="907" font-size="10" fill="#444441">scripts</text>
  <rect x="482" y="898" width="10" height="10" rx="2" fill="#888780"/>
  <text x="498" y="907" font-size="10" fill="#444441">config / infra</text>
  <line x1="590" y1="903" x2="614" y2="903" stroke="#b4b2a9" stroke-width="0.75" stroke-dasharray="4 3"/>
  <text x="620" y="907" font-size="10" fill="#444441">reads config</text>

</svg>
